HIERARCHY
ROOT Hips
{
  OFFSET -69.4423 88.0299 51.6846
  CHANNELS 6 Xposition Yposition Zposition Zrotation Xrotation Yrotation
  JOINT Spine
  {
    OFFSET 12.0259 -0.162853 1.93176e-005
    CHANNELS 3 Zrotation Xrotation Yrotation
    JOINT Spine1
    {
      OFFSET 15.3169 -0.0121909 0
      CHANNELS 3 Zrotation Xrotation Yrotation
      JOINT Spine2
      {
        OFFSET 15.3176 -0.0121922 0
        CHANNELS 3 Zrotation Xrotation Yrotation
        JOINT Neck
        {
          OFFSET 19.9142 1.56236 0
          CHANNELS 3 Zrotation Xrotation Yrotation
          JOINT Head
          {
            OFFSET 6.92646 0 0
            CHANNELS 3 Zrotation Xrotation Yrotation
            End Site
            {
              OFFSET 20.7666 0 0
            }
          }
          JOINT LeftShoulder
          {
            OFFSET -4.94072 -1.14703 8.14416
            CHANNELS 3 Zrotation Xrotation Yrotation
            JOINT LeftArm
            {
              OFFSET 14.108 0 -2.74767e-005
              CHANNELS 3 Zrotation Xrotation Yrotation
              JOINT LeftForeArm
              {
                OFFSET 28.5802 -0.0783412 -0.0284884
                CHANNELS 3 Zrotation Xrotation Yrotation
                JOINT LeftHand
                {
                  OFFSET 27.092 0 0
                  CHANNELS 3 Zrotation Xrotation Yrotation
                  End Site
                  {
                    OFFSET 9.55928 -0.186424 0.145352
                  }
                }
              }
            }
          }
          JOINT RightShoulder
          {
            OFFSET -7.15748 -1.33027 -6.24935
            CHANNELS 3 Zrotation Xrotation Yrotation
            JOINT RightArm
            {
              OFFSET 14.108 0 1.82997e-005
              CHANNELS 3 Zrotation Xrotation Yrotation
              JOINT RightForeArm
              {
                OFFSET 28.5802 -0.0707221 2.30684e-005
                CHANNELS 3 Zrotation Xrotation Yrotation
                JOINT RightHand
                {
                  OFFSET 27.092 0 -1.30073e-005
                  CHANNELS 3 Zrotation Xrotation Yrotation
                  End Site
                  {
                    OFFSET 9.55929 -0.186417 -0.145354
                  }
                }
              }
            }
          }
        }
      }
    }
  }
  JOINT LeftUpLeg
  {
    OFFSET 0.00499725 -0.534999 8.837
    CHANNELS 3 Zrotation Xrotation Yrotation
    JOINT LeftLeg
    {
      OFFSET 39.9035 -0.00124594 0.000252775
      CHANNELS 3 Zrotation Xrotation Yrotation
      JOINT LeftFoot
      {
        OFFSET 39.6689 0 0
        CHANNELS 3 Zrotation Xrotation Yrotation
        JOINT LeftToe
        {
          OFFSET 10.1624 13.6296 0
          CHANNELS 3 Zrotation Xrotation Yrotation
          End Site
          {
            OFFSET 8.38147 0 0
          }
        }
      }
    }
  }
  JOINT RightUpLeg
  {
    OFFSET 0.00499725 -0.535 -8.837
    CHANNELS 3 Zrotation Xrotation Yrotation
    JOINT RightLeg
    {
      OFFSET 39.9036 -0.000268477 0.000106433
      CHANNELS 3 Zrotation Xrotation Yrotation
      JOINT RightFoot
      {
        OFFSET 39.6689 1.17892e-005 0
        CHANNELS 3 Zrotation Xrotation Yrotation
        JOINT RightToe
        {
          OFFSET 10.1624 13.6296 0
          CHANNELS 3 Zrotation Xrotation Yrotation
          End Site
          {
            OFFSET 8.38147 0 0
          }
        }
      }
    }
  }
}
MOTION
Frames:	9
Frame Time:	0.0333333
-65.632 88.4033 -67.1714 106.4 87.5061 -10.6862 1.15142 -0.632367 -0.526255 2.29722 -1.27466 -1.03961 2.29721 -1.27467 -1.03963 -19.4536 -0.6917 -12.6388 43.533 0.356283 11.8141 -162.354 -3.00413 -95.3721 -24.9782 -1.74031 77.7955 -24.734 2.66477 -15.8337 13.6652 -84.9542 16.2278 -162.686 -6.04307 72.7978 -9.72307 -2.1864 -86.3511 -19.9888 -2.08135 12.5742 2.55603 78.8 -2.22293 18.5671 -8.02871 174.506 -1.69 1.05618 -1.52384 -6.74313 6.19384 1.02695 90 -1.11319e-014 -1.59028e-015 -27.1881 -0.3276 173.26 -26.6329 -0.159482 0.773334 -12.2487 -2.31973 -0.634597 90 -2.88238e-015 -1.19271e-014 
-66.7614 88.9518 -63.8026 101.574 86.6957 -7.81248 1.05982 -0.465486 -0.112574 2.11881 -0.932489 -0.216342 2.11881 -0.932488 -0.216359 -19.5667 -0.479063 -12.4233 44.0683 0.45147 11.1491 -162.258 -2.86714 -95.1718 -22.8218 -0.73638 79.5962 -23.6856 2.48928 -15.2555 15.0357 -84.7114 17.4923 -162.525 -5.71398 72.8604 -8.10421 -2.56264 -86.5475 -18.9881 -1.89937 12.0306 2.69609 79.1224 -2.35798 15.7883 -6.39973 176.215 -10.1415 1.17107 -1.15652 -9.54429 7.44079 1.43754 90 -4.77083e-015 -4.77083e-015 -24.4803 -0.663909 176.216 -26.1651 -0.257901 0.706904 -11.8308 -2.42303 -0.671338 90 -1.49089e-015 1.19271e-015 
-67.5171 89.3981 -60.3325 94.1898 86.3053 -0.65226 1.05649 -0.372361 -0.0601868 2.11267 -0.745308 -0.113338 2.11266 -0.745307 -0.113347 -19.7897 -0.394044 -12.2568 44.3827 0.556457 10.9527 -162.091 -2.94377 -94.9676 -20.5682 0.570131 81.3523 -22.9625 2.37298 -14.8314 12.502 -83.8039 15.0361 -162.277 -5.54869 72.9625 -7.21953 -3.15284 -86.5731 -18.6558 -1.84417 11.8623 2.60998 79.4917 -2.36601 10.5772 -5.25962 175.823 -21.821 1.21221 -0.708062 -15.3409 8.11147 2.07686 90 -1.59028e-015 1.59028e-015 -21.7539 -1.32689 176.616 -26.3783 -0.351067 0.662781 -9.17321 -3.34302 -1.05958 90 -4.87022e-015 1.63003e-014 
-68.3699 89.6436 -57.064 87.2709 86.8108 5.13236 1.0748 -0.388081 0.184519 2.15728 -0.77214 0.376474 2.15727 -0.772145 0.376465 -19.9525 -0.37151 -12.42 44.4305 0.758697 11.2558 -161.995 -3.16241 -95.0486 -20.161 1.90775 82.5042 -21.844 2.17716 -14.2038 10.6879 -83.3791 13.2274 -162.095 -5.58598 72.7534 -3.10158 -2.4938 -86.2692 -17.7301 -1.6631 11.2704 1.72449 74.0591 -1.25721 5.50637 -4.12536 176.996 -30.946 1.08451 -0.383398 -26.3787 9.03825 3.6632 90 -4.77083e-015 -2.06736e-014 -18.8966 -2.63497 177.892 -26.3143 -0.443479 0.613085 -6.9641 -3.95459 -1.26439 90 6.95746e-016 2.78299e-015 
-69.3117 89.9004 -53.8303 78.425 86.9284 11.8714 1.08342 -0.209235 0.619286 2.16908 -0.406214 1.24258 2.16907 -0.406235 1.24257 -19.9009 -0.57406 -12.4641 44.4455 0.426921 11.4347 -162.144 -3.49452 -95.0516 -22.1764 3.72804 83.5876 -21.157 2.04094 -13.8025 9.8242 -83.0163 12.2889 -162.222 -5.73276 72.7702 -7.46192 -4.30802 -85.8048 -19.0967 -1.91319 12.0644 2.56536 78.9252 -2.19176 0.441417 -3.34296 179.136 -39.6517 0.936001 -0.138226 -32.3042 10.6059 5.56456 90 -1.59028e-015 -7.95139e-015 -15.0751 -3.6582 -179.469 -24.449 -0.539303 0.56107 -6.13392 -3.82395 -1.184 90 -1.2921e-015 1.98785e-015 
-70.111 90.1015 -50.7538 66.6054 86.9638 22.4487 1.17537 -0.0317259 0.844829 2.35108 -0.0456186 1.69028 2.35108 -0.0456257 1.69027 -20.1959 -0.7636 -12.6899 44.8442 0.291292 12.007 -161.951 -3.90959 -95.1771 -23.5843 4.75973 84.325 -20.773 1.9644 -13.5801 7.12306 -81.0349 9.541 -161.973 -6.06521 72.609 -7.05323 -3.89983 -85.2455 -19.045 -1.90912 12.0501 2.36652 78.4165 -2.10897 -4.45564 -2.60061 -179.391 -47.8911 0.885804 0.00702852 -27.293 11.3889 5.11927 90 1.59028e-015 -7.15625e-015 -11.4382 -3.81597 -177.601 -22.937 -0.604823 0.501991 -5.20233 -2.84373 -0.861654 90 1.59028e-015 3.97569e-015 
-70.6986 90.1876 -47.8042 63.8747 86.5697 24.5822 1.1624 0.26002 0.91961 2.31542 0.539063 1.83396 2.31541 0.539056 1.83395 -19.6922 -0.975449 -12.7572 44.6523 0.169052 12.3767 -162.574 -4.1548 -95.2785 -23.3717 6.1633 85.6018 -21.3998 2.06569 -13.8893 6.1579 -79.6467 8.59548 -162.487 -6.17393 72.5803 -6.87309 -3.55801 -84.7254 -18.9772 -1.89884 12.0161 2.33127 78.5268 -2.10102 -8.6877 -1.34413 -178.498 -53.1814 0.812456 0.0528539 -18.601 9.23887 2.79567 90 1.74931e-014 7.95139e-015 -8.46774 -3.70645 -176.599 -21.7688 -0.660173 0.45643 -3.80104 -2.80277 -0.864547 90 -3.97569e-016 -7.15625e-015 
-71.1964 90.2881 -44.9306 63.9893 86.049 24.1124 1.16683 0.542288 0.961418 2.32455 1.10444 1.91187 2.32455 1.10444 1.91186 -19.3833 -1.09636 -12.8903 44.6006 0.0893463 12.5971 -162.994 -4.35772 -95.4678 -22.6701 7.39853 86.8661 -22.2984 2.21569 -14.346 6.95705 -81.046 9.45406 -162.776 -6.25713 72.4692 -5.76742 -2.34554 -83.9449 -18.5047 -1.81577 11.7473 2.2885 77.7745 -2.01777 -12.7449 -0.274067 -177.843 -55.1614 0.735383 -0.00222467 -14.2405 7.08517 1.61397 90 7.95139e-015 -0 -5.93938 -3.11109 -175.875 -21.0797 -0.703279 0.418936 -2.9225 -2.5625 -0.81459 90 -4.77083e-015 2.38542e-015 
-71.555 89.9921 -42.2356 64.5122 85.6375 23.4049 1.18 0.865426 0.902466 2.34666 1.74962 1.78737 2.34664 1.74962 1.78736 -19.4091 -1.37398 -12.8885 45.0028 -0.138643 13.1359 -163.084 -4.71777 -95.4192 -21.3704 8.37003 87.4566 -22.7394 2.28942 -14.5611 8.42022 -83.1876 10.9265 -162.774 -6.54457 72.59 -4.92909 -1.18033 -83.5909 -18.7071 -1.84818 11.8412 2.1359 76.9802 -1.81976 -16.0622 0.448414 -177.557 -54.6711 0.71065 -0.126509 -9.18781 4.99963 0.798309 90 -5.56597e-015 -3.97569e-015 -4.50403 -2.4382 -175.381 -22.0479 -0.728714 0.362547 -1.27356 -1.77412 -0.703145 90 1.19271e-015 1.31198e-014 
